<?xml version="1.0" encoding="UTF-8" standalone="no"?>
<!-- Created with Inkscape (http://www.inkscape.org/) -->
<svg
   xmlns:dc="http://purl.org/dc/elements/1.1/"
   xmlns:cc="http://creativecommons.org/ns#"
   xmlns:rdf="http://www.w3.org/1999/02/22-rdf-syntax-ns#"
   xmlns:svg="http://www.w3.org/2000/svg"
   xmlns="http://www.w3.org/2000/svg"
   xmlns:sodipodi="http://sodipodi.sourceforge.net/DTD/sodipodi-0.dtd"
   xmlns:inkscape="http://www.inkscape.org/namespaces/inkscape"
   width="1680"
   height="1050"
   id="svg2497"
   sodipodi:version="0.32"
   inkscape:version="0.46+devel"
   version="1.0"
   sodipodi:docname="awesome-bg.svg"
   inkscape:output_extension="org.inkscape.output.svg.inkscape"
   inkscape:export-filename="/home/garoth/awesome-bg.png"
   inkscape:export-xdpi="90"
   inkscape:export-ydpi="90">
  <defs
     id="defs2499">
    <inkscape:perspective
       sodipodi:type="inkscape:persp3d"
       inkscape:vp_x="0 : 600 : 1"
       inkscape:vp_y="0 : 1000 : 0"
       inkscape:vp_z="1600 : 600 : 1"
       inkscape:persp3d-origin="800 : 400 : 1"
       id="perspective2505" />
    <inkscape:perspective
       id="perspective2573"
       inkscape:persp3d-origin="0.5 : 0.33333333 : 1"
       inkscape:vp_z="1 : 0.5 : 1"
       inkscape:vp_y="0 : 1000 : 0"
       inkscape:vp_x="0 : 0.5 : 1"
       sodipodi:type="inkscape:persp3d" />
    <inkscape:perspective
       id="perspective2638"
       inkscape:persp3d-origin="0.5 : 0.33333333 : 1"
       inkscape:vp_z="1 : 0.5 : 1"
       inkscape:vp_y="0 : 1000 : 0"
       inkscape:vp_x="0 : 0.5 : 1"
       sodipodi:type="inkscape:persp3d" />
  </defs>
  <sodipodi:namedview
     id="base"
     pagecolor="#ffffff"
     bordercolor="#666666"
     borderopacity="1.0"
     inkscape:pageopacity="0.0"
     inkscape:pageshadow="2"
     inkscape:zoom="0.39069839"
     inkscape:cx="295.58795"
     inkscape:cy="149.54226"
     inkscape:current-layer="layer1"
     inkscape:document-units="px"
     showgrid="false"
     inkscape:window-width="1676"
     inkscape:window-height="1026"
     inkscape:window-x="0"
     inkscape:window-y="20"
     inkscape:snap-bbox="true" />
  <metadata
     id="metadata2502">
    <rdf:RDF>
      <cc:Work
         rdf:about="">
        <dc:format>image/svg+xml</dc:format>
        <dc:type
           rdf:resource="http://purl.org/dc/dcmitype/StillImage" />
      </cc:Work>
    </rdf:RDF>
  </metadata>
  <g
     id="layer1"
     inkscape:label="Layer 1"
     inkscape:groupmode="layer"
     transform="translate(943.33331,75.333282)">
    <rect
       style="opacity:1;fill:#e2eeea;fill-opacity:1;stroke:none"
       id="rect2507"
       width="1680"
       height="1050"
       x="-943.33331"
       y="-75.333282" />
    <rect
       y="-75.333282"
       x="-943.33331"
       height="22"
       width="1680"
       id="rect2581"
       style="opacity:1;fill:#729fcf;fill-opacity:1;stroke:none" />
    <path
       style="fill:#4b6888;fill-opacity:1;stroke:none"
       d="m 550.97551,25.652417 104.17142,0 0,104.171433 -33.45651,0 0,-35.737647 -38.01877,0 -0.0882,3.065138 35.06546,0 0,32.672509 -67.67338,0 0,-66.913038 72.99606,0 0,-4.562254 -72.23569,0 -0.76037,-32.696141 0,0 -5e-5,0 0,0 z"
       id="path2644"
       sodipodi:nodetypes="cccccccccccccccccc" />
    <path
       style="fill:#729fcf;fill-opacity:1;stroke:none"
       d="m 550.97551,152.03061 0,101.89031 103.41102,0 0,-101.89032 -34.21691,0 0,70.71493 -3.87638,0.27831 0,-70.99323 -29.58018,0 0,69.95454 -3.80188,0 0,-69.95454 -30.41499,0 -1.52068,0 0,0 z"
       id="path2646"
       sodipodi:nodetypes="ccccccccccccccc" />
    <path
       style="fill:#729fcf;fill-opacity:1;stroke:none"
       d="m 651.34517,401.74546 0,31.17539 -69.95463,0 0,4.56224 69.95463,0 0,67.67342 -100.36966,0 0,-32.69614 66.91303,0 0,-4.56225 -66.91303,0 0,-66.15266 100.36966,0 0,0 z"
       id="path2648"
       sodipodi:nodetypes="cccccccccccccc" />
    <path
       style="fill:#729fcf;fill-opacity:1;stroke:none"
       d="m 653.61579,527.36327 -102.64028,0.74269 0,102.67739 102.64028,0 0,-103.42008 z m -53.58528,34.60952 5.5702,0.0371 0,39.88265 -5.94155,0 0.37135,-39.91978 z"
       id="path2650" />
    <path
       sodipodi:nodetypes="ccccccccccccccc"
       id="path2654"
       d="m 652.86573,276.12764 -101.89022,0 0,103.41105 101.89034,0 0,-34.21689 -70.71503,0 -0.27831,-3.87645 70.99322,0 0,-29.58007 -69.95451,0 0,-3.80188 69.95451,0 0,-30.41501 0,-1.52075 0,0 z"
       style="fill:#729fcf;fill-opacity:1;stroke:none" />
    <path
       sodipodi:nodetypes="ccccccccccccccc"
       id="path2656"
       d="m 550.97551,754.88041 0,-101.8903 103.41114,0 0,101.89031 -34.21691,0 0,-70.71492 -3.8765,-0.27832 0,70.99323 -29.58003,0 0,-69.95454 -3.80188,0 0,69.95454 -30.41502,0 -1.5208,0 0,0 z"
       style="fill:#729fcf;fill-opacity:1;stroke:none" />
    <path
       style="fill:#729fcf;fill-opacity:1;stroke:none"
       d="m 652.86585,777.08716 -101.89034,0 0,103.41106 101.89034,0 0,-34.21689 -70.71491,0 -0.27831,-3.87645 70.99322,0 0,-29.58007 -69.95452,0 0,-3.80188 69.95452,0 0,-30.41501 0,-1.52076 0,0 z"
       id="path2658"
       sodipodi:nodetypes="ccccccccccccccc" />
    <rect
       style="opacity:1;fill:#729fcf;fill-opacity:1;stroke:none"
       id="rect2504"
       width="1680"
       height="22"
       x="-943.33331"
       y="952.66675" />
  </g>
</svg>
